<svg width="219" height="472" viewBox="0 0 219 472" fill="none" xmlns="http://www.w3.org/2000/svg">
<g clip-path="url(#clip0_1_3282)">
<path d="M134.629 17.2303L151.444 17.2303V0.444666L134.629 0.444666V17.2303Z" fill="#C32A3D" stroke="white" stroke-width="0.25" stroke-miterlimit="10"/>
<path d="M101.148 17.2303L117.963 17.2303V0.444666L101.148 0.444666V17.2303Z" fill="#C32A3D" stroke="white" stroke-width="0.25" stroke-miterlimit="10"/>
<path d="M67.6672 17.2303L84.4819 17.2303V0.444666L67.6672 0.444666V17.2303Z" fill="#C32A3D" stroke="white" stroke-width="0.25" stroke-miterlimit="10"/>
<path d="M34.1491 17.2303L50.9639 17.2303V0.444666L34.1491 0.444666V17.2303Z" fill="#C32A3D" stroke="white" stroke-width="0.25" stroke-miterlimit="10"/>
<path d="M168.259 17.2303L185.073 17.2303V0.444666L168.259 0.444666V17.2303Z" fill="#C32A3D" stroke="white" stroke-width="0.25" stroke-miterlimit="10"/>
<path d="M118.074 34.1272H134.889V17.3415L118.074 17.3415V34.1272Z" fill="#C32A3D" stroke="white" stroke-width="0.25" stroke-miterlimit="10"/>
<path d="M84.3334 34.1272H101.148V17.3415L84.3334 17.3415V34.1272Z" fill="#C32A3D" stroke="white" stroke-width="0.25" stroke-miterlimit="10"/>
<path d="M50.8525 34.1272H67.6672V17.3415L50.8525 17.3415V34.1272Z" fill="#C32A3D" stroke="white" stroke-width="0.25" stroke-miterlimit="10"/>
<path d="M151.481 34.1272H168.296V17.3415L151.481 17.3415V34.1272Z" fill="#C32A3D" stroke="white" stroke-width="0.25" stroke-miterlimit="10"/>
<path d="M134.629 50.95H151.444V34.1643H134.629V50.95Z" fill="#C32A3D" stroke="white" stroke-width="0.25" stroke-miterlimit="10"/>
<path d="M101.148 50.95H117.963V34.1643H101.148V50.95Z" fill="#C32A3D" stroke="white" stroke-width="0.25" stroke-miterlimit="10"/>
<path d="M67.6672 50.95H84.4819V34.1643H67.6672V50.95Z" fill="#C32A3D" stroke="white" stroke-width="0.25" stroke-miterlimit="10"/>
<path d="M118.074 67.7356H134.889V50.9499H118.074V67.7356Z" fill="#C32A3D" stroke="white" stroke-width="0.25" stroke-miterlimit="10"/>
<path d="M84.3334 67.7356H101.148V50.9499H84.3334V67.7356Z" fill="#C32A3D" stroke="white" stroke-width="0.25" stroke-miterlimit="10"/>
<path d="M101.148 84.5953H117.963V67.8097H101.148V84.5953Z" fill="#C32A3D" stroke="white" stroke-width="0.25" stroke-miterlimit="10"/>
<path d="M101 101.418H117.814V84.6324H101V101.418Z" fill="#C32A3D" stroke="white" stroke-width="0.25" stroke-miterlimit="10"/>
<path d="M101 118.204H117.814V101.418H101V118.204Z" fill="#C32A3D" stroke="white" stroke-width="0.25" stroke-miterlimit="10"/>
<path d="M50.7783 118.204H67.593V101.418H50.7783V118.204Z" fill="#C32A3D" stroke="white" stroke-width="0.25" stroke-miterlimit="10"/>
<path d="M151.37 118.204H168.185V101.418H151.37V118.204Z" fill="#C32A3D" stroke="white" stroke-width="0.25" stroke-miterlimit="10"/>
<path d="M134.481 135.064H151.296V118.278H134.481V135.064Z" fill="#C32A3D" stroke="white" stroke-width="0.25" stroke-miterlimit="10"/>
<path d="M101 135.064H117.814V118.278H101V135.064Z" fill="#C32A3D" stroke="white" stroke-width="0.25" stroke-miterlimit="10"/>
<path d="M67.5559 135.064H84.3706V118.278H67.5559V135.064Z" fill="#C32A3D" stroke="white" stroke-width="0.25" stroke-miterlimit="10"/>
<path d="M50.7783 135.064H67.593V118.278H50.7783V135.064Z" fill="#C32A3D" stroke="white" stroke-width="0.25" stroke-miterlimit="10"/>
<path d="M151.37 135.064H168.185V118.278H151.37V135.064Z" fill="#C32A3D" stroke="white" stroke-width="0.25" stroke-miterlimit="10"/>
<path d="M117.963 151.849H134.778V135.064H117.963V151.849Z" fill="#C32A3D" stroke="white" stroke-width="0.25" stroke-miterlimit="10"/>
<path d="M84.2592 151.849H101.074V135.064H84.2592V151.849Z" fill="#C32A3D" stroke="white" stroke-width="0.25" stroke-miterlimit="10"/>
<path d="M117.963 168.709H134.778V151.923H117.963V168.709Z" fill="#C32A3D" stroke="white" stroke-width="0.25" stroke-miterlimit="10"/>
<path d="M84.2592 168.709H101.074V151.923H84.2592V168.709Z" fill="#C32A3D" stroke="white" stroke-width="0.25" stroke-miterlimit="10"/>
<path d="M117.963 185.532H134.778V168.746H117.963V185.532Z" fill="#C32A3D" stroke="white" stroke-width="0.25" stroke-miterlimit="10"/>
<path d="M84.2592 185.532H101.074V168.746H84.2592V185.532Z" fill="#C32A3D" stroke="white" stroke-width="0.25" stroke-miterlimit="10"/>
<path d="M34.0378 185.532H50.8525V168.746H34.0378V185.532Z" fill="#C32A3D" stroke="white" stroke-width="0.25" stroke-miterlimit="10"/>
<path d="M168.147 185.532H184.962V168.746H168.147V185.532Z" fill="#C32A3D" stroke="white" stroke-width="0.25" stroke-miterlimit="10"/>
<path d="M117.963 202.354H134.778V185.569H117.963V202.354Z" fill="#C32A3D" stroke="white" stroke-width="0.25" stroke-miterlimit="10"/>
<path d="M84.2592 202.354H101.074V185.569H84.2592V202.354Z" fill="#C32A3D" stroke="white" stroke-width="0.25" stroke-miterlimit="10"/>
<path d="M50.7783 202.354H67.593V185.569H50.7783V202.354Z" fill="#C32A3D" stroke="white" stroke-width="0.25" stroke-miterlimit="10"/>
<path d="M34.0378 202.354H50.8525V185.569H34.0378V202.354Z" fill="#C32A3D" stroke="white" stroke-width="0.25" stroke-miterlimit="10"/>
<path d="M168.147 202.354H184.962V185.569H168.147V202.354Z" fill="#C32A3D" stroke="white" stroke-width="0.25" stroke-miterlimit="10"/>
<path d="M151.37 202.354H168.185V185.569H151.37V202.354Z" fill="#C32A3D" stroke="white" stroke-width="0.25" stroke-miterlimit="10"/>
<path d="M134.481 219.177H151.296V202.392H134.481V219.177Z" fill="#C32A3D" stroke="white" stroke-width="0.25" stroke-miterlimit="10"/>
<path d="M101 219.177H117.814V202.392H101V219.177Z" fill="#C32A3D" stroke="white" stroke-width="0.25" stroke-miterlimit="10"/>
<path d="M67.5559 219.177H84.3706V202.392H67.5559V219.177Z" fill="#C32A3D" stroke="white" stroke-width="0.25" stroke-miterlimit="10"/>
<path d="M134.518 236H151.333V219.214H134.518V236Z" fill="#C32A3D" stroke="white" stroke-width="0.25" stroke-miterlimit="10"/>
<path d="M101.037 236H117.852V219.214H101.037V236Z" fill="#C32A3D" stroke="white" stroke-width="0.25" stroke-miterlimit="10"/>
<path d="M67.5559 236H84.3706V219.214H67.5559V236Z" fill="#C32A3D" stroke="white" stroke-width="0.25" stroke-miterlimit="10"/>
<path d="M134.518 252.823H151.333V236.037H134.518V252.823Z" fill="#C32A3D" stroke="white" stroke-width="0.25" stroke-miterlimit="10"/>
<path d="M101.037 252.823H117.852V236.037H101.037V252.823Z" fill="#C32A3D" stroke="white" stroke-width="0.25" stroke-miterlimit="10"/>
<path d="M67.5559 252.823H84.3706V236.037H67.5559V252.823Z" fill="#C32A3D" stroke="white" stroke-width="0.25" stroke-miterlimit="10"/>
<path d="M17.2231 252.823H34.0378V236.037H17.2231L17.2231 252.823Z" fill="#C32A3D" stroke="white" stroke-width="0.25" stroke-miterlimit="10"/>
<path d="M184.962 252.823H201.777V236.037H184.962V252.823Z" fill="#C32A3D" stroke="white" stroke-width="0.25" stroke-miterlimit="10"/>
<path d="M134.518 269.646H151.333V252.86H134.518V269.646Z" fill="#C32A3D" stroke="white" stroke-width="0.25" stroke-miterlimit="10"/>
<path d="M101.037 269.646H117.852V252.86H101.037V269.646Z" fill="#C32A3D" stroke="white" stroke-width="0.25" stroke-miterlimit="10"/>
<path d="M67.5559 269.646H84.3706V252.86H67.5559V269.646Z" fill="#C32A3D" stroke="white" stroke-width="0.25" stroke-miterlimit="10"/>
<path d="M34.0378 269.646H50.8525V252.86H34.0378V269.646Z" fill="#C32A3D" stroke="white" stroke-width="0.25" stroke-miterlimit="10"/>
<path d="M17.2231 269.646H34.0378V252.86H17.2231L17.2231 269.646Z" fill="#C32A3D" stroke="white" stroke-width="0.25" stroke-miterlimit="10"/>
<path d="M168.147 269.646H184.962V252.86H168.147V269.646Z" fill="#C32A3D" stroke="white" stroke-width="0.25" stroke-miterlimit="10"/>
<path d="M184.962 269.646H201.777V252.86H184.962V269.646Z" fill="#C32A3D" stroke="white" stroke-width="0.25" stroke-miterlimit="10"/>
<path d="M117.963 286.431H134.778V269.645H117.963V286.431Z" fill="#C32A3D" stroke="white" stroke-width="0.25" stroke-miterlimit="10"/>
<path d="M84.2592 286.431H101.074V269.645H84.2592V286.431Z" fill="#C32A3D" stroke="white" stroke-width="0.25" stroke-miterlimit="10"/>
<path d="M50.7783 286.431H67.593V269.645H50.7783V286.431Z" fill="#C32A3D" stroke="white" stroke-width="0.25" stroke-miterlimit="10"/>
<path d="M151.37 286.431H168.185V269.645H151.37V286.431Z" fill="#C32A3D" stroke="white" stroke-width="0.25" stroke-miterlimit="10"/>
<path d="M117.963 303.328H134.778V286.542H117.963V303.328Z" fill="#C32A3D" stroke="white" stroke-width="0.25" stroke-miterlimit="10"/>
<path d="M84.2592 303.328H101.074V286.542H84.2592V303.328Z" fill="#C32A3D" stroke="white" stroke-width="0.25" stroke-miterlimit="10"/>
<path d="M50.7783 303.328H67.593V286.542H50.7783V303.328Z" fill="#C32A3D" stroke="white" stroke-width="0.25" stroke-miterlimit="10"/>
<path d="M151.37 303.328H168.185V286.542H151.37V303.328Z" fill="#C32A3D" stroke="white" stroke-width="0.25" stroke-miterlimit="10"/>
<path d="M117.963 320.114H134.778V303.328H117.963V320.114Z" fill="#C32A3D" stroke="white" stroke-width="0.25" stroke-miterlimit="10"/>
<path d="M84.2592 320.114H101.074V303.328H84.2592V320.114Z" fill="#C32A3D" stroke="white" stroke-width="0.25" stroke-miterlimit="10"/>
<path d="M50.7783 320.114H67.593V303.328H50.7783V320.114Z" fill="#C32A3D" stroke="white" stroke-width="0.25" stroke-miterlimit="10"/>
<path d="M0.445509 320.151H17.2603L17.2603 303.365H0.445509L0.445509 320.151Z" fill="#C32A3D" stroke="white" stroke-width="0.25" stroke-miterlimit="10"/>
<path d="M151.37 320.114H168.185V303.328H151.37V320.114Z" fill="#C32A3D" stroke="white" stroke-width="0.25" stroke-miterlimit="10"/>
<path d="M201.703 320.114H218.518V303.328H201.703V320.114Z" fill="#C32A3D" stroke="white" stroke-width="0.25" stroke-miterlimit="10"/>
<path d="M117.963 336.936H134.778V320.151H117.963V336.936Z" fill="#C32A3D" stroke="white" stroke-width="0.25" stroke-miterlimit="10"/>
<path d="M84.2592 336.936H101.074V320.151H84.2592V336.936Z" fill="#C32A3D" stroke="white" stroke-width="0.25" stroke-miterlimit="10"/>
<path d="M50.7783 336.936H67.593V320.151H50.7783V336.936Z" fill="#C32A3D" stroke="white" stroke-width="0.25" stroke-miterlimit="10"/>
<path d="M17.2231 336.936H34.0378V320.151H17.2231L17.2231 336.936Z" fill="#C32A3D" stroke="white" stroke-width="0.25" stroke-miterlimit="10"/>
<path d="M0.445509 336.973H17.2603L17.2603 320.188H0.445509L0.445509 336.973Z" fill="#C32A3D" stroke="white" stroke-width="0.25" stroke-miterlimit="10"/>
<path d="M151.37 336.936H168.185V320.151H151.37V336.936Z" fill="#C32A3D" stroke="white" stroke-width="0.25" stroke-miterlimit="10"/>
<path d="M184.962 336.936H201.777V320.151H184.962V336.936Z" fill="#C32A3D" stroke="white" stroke-width="0.25" stroke-miterlimit="10"/>
<path d="M201.703 336.936H218.518V320.151H201.703V336.936Z" fill="#C32A3D" stroke="white" stroke-width="0.25" stroke-miterlimit="10"/>
<path d="M134.518 353.759H151.333V336.973H134.518V353.759Z" fill="#C32A3D" stroke="white" stroke-width="0.25" stroke-miterlimit="10"/>
<path d="M101.037 353.759H117.852V336.973H101.037V353.759Z" fill="#C32A3D" stroke="white" stroke-width="0.25" stroke-miterlimit="10"/>
<path d="M67.5559 353.759H84.3706V336.973H67.5559V353.759Z" fill="#C32A3D" stroke="white" stroke-width="0.25" stroke-miterlimit="10"/>
<path d="M34.0378 353.759H50.8525V336.973H34.0378V353.759Z" fill="#C32A3D" stroke="white" stroke-width="0.25" stroke-miterlimit="10"/>
<path d="M168.147 353.759H184.962V336.973H168.147V353.759Z" fill="#C32A3D" stroke="white" stroke-width="0.25" stroke-miterlimit="10"/>
<path d="M117.852 370.582H134.667V353.796H117.852V370.582Z" fill="#C32A3D" stroke="white" stroke-width="0.25" stroke-miterlimit="10"/>
<path d="M84.1108 370.582H100.926V353.796H84.1108V370.582Z" fill="#C32A3D" stroke="white" stroke-width="0.25" stroke-miterlimit="10"/>
<path d="M50.6298 370.582H67.4446V353.796H50.6298V370.582Z" fill="#C32A3D" stroke="white" stroke-width="0.25" stroke-miterlimit="10"/>
<path d="M151.259 370.582H168.073V353.796H151.259V370.582Z" fill="#C32A3D" stroke="white" stroke-width="0.25" stroke-miterlimit="10"/>
<path d="M134.37 387.368H151.184V370.582H134.37V387.368Z" fill="#C32A3D" stroke="white" stroke-width="0.25" stroke-miterlimit="10"/>
<path d="M100.925 387.368H117.74V370.582H100.925V387.368Z" fill="#C32A3D" stroke="white" stroke-width="0.25" stroke-miterlimit="10"/>
<path d="M67.4445 387.368H84.2593V370.582H67.4445V387.368Z" fill="#C32A3D" stroke="white" stroke-width="0.25" stroke-miterlimit="10"/>
<path d="M117.852 404.227H134.667V387.442H117.852V404.227Z" fill="#C32A3D" stroke="white" stroke-width="0.25" stroke-miterlimit="10"/>
<path d="M84.1108 404.227H100.926V387.442H84.1108V404.227Z" fill="#C32A3D" stroke="white" stroke-width="0.25" stroke-miterlimit="10"/>
<path d="M100.925 421.05H117.74V404.264H100.925V421.05Z" fill="#C32A3D" stroke="white" stroke-width="0.25" stroke-miterlimit="10"/>
<path d="M100.925 437.873H117.74V421.087H100.925V437.873Z" fill="#C32A3D" stroke="white" stroke-width="0.25" stroke-miterlimit="10"/>
<path d="M117.852 454.733H134.667V437.947H117.852V454.733Z" fill="#C32A3D" stroke="white" stroke-width="0.25" stroke-miterlimit="10"/>
<path d="M84.1108 454.733H100.926V437.947H84.1108V454.733Z" fill="#C32A3D" stroke="white" stroke-width="0.25" stroke-miterlimit="10"/>
<path d="M100.925 471.555H117.74V454.77H100.925V471.555Z" fill="#C32A3D" stroke="white" stroke-width="0.25" stroke-miterlimit="10"/>
</g>
<defs>
<clipPath id="clip0_1_3282">
<rect width="219" height="472" fill="white"/>
</clipPath>
</defs>
</svg>
