<svg width="219" height="470" viewBox="0 0 219 470" fill="none" xmlns="http://www.w3.org/2000/svg">
<g clip-path="url(#clip0_1_4963)">
<path d="M58.4665 0.387329H43.8579V15.0103H58.4665V0.387329Z" fill="#C32E3F" stroke="#414042" stroke-width="0.25" stroke-miterlimit="10"/>
<path d="M73.0754 0.451904H58.4668V15.0748H73.0754V0.451904Z" fill="#C32E3F" stroke="#414042" stroke-width="0.25" stroke-miterlimit="10"/>
<path d="M88.0388 0.451904H73.4302V15.0748H88.0388V0.451904Z" fill="#C32E3F" stroke="#414042" stroke-width="0.25" stroke-miterlimit="10"/>
<path d="M102.518 0.451904H87.9097V15.0748H102.518V0.451904Z" fill="#C32E3F" stroke="#414042" stroke-width="0.25" stroke-miterlimit="10"/>
<path d="M116.74 0.581055H102.131V15.204H116.74V0.581055Z" fill="#231F20" stroke="#414042" stroke-width="0.25" stroke-miterlimit="10"/>
<path d="M131.348 0.613281H116.74V15.2362H131.348V0.613281Z" fill="#C32E3F" stroke="#414042" stroke-width="0.25" stroke-miterlimit="10"/>
<path d="M146.312 0.516479H131.703V15.1394H146.312V0.516479Z" fill="#C32E3F" stroke="#414042" stroke-width="0.25" stroke-miterlimit="10"/>
<path d="M160.92 0.451904H146.312V15.0748H160.92V0.451904Z" fill="#C32E3F" stroke="#414042" stroke-width="0.25" stroke-miterlimit="10"/>
<path d="M175.529 0.484253H160.92V15.1072H175.529V0.484253Z" fill="#C32E3F" stroke="#414042" stroke-width="0.25" stroke-miterlimit="10"/>
<path d="M131.348 15.1718H116.74V29.7947H131.348V15.1718Z" fill="#C32E3F" stroke="#414042" stroke-width="0.25" stroke-miterlimit="10"/>
<path d="M145.957 15.1718H131.349V29.7947H145.957V15.1718Z" fill="#C32E3F" stroke="#414042" stroke-width="0.25" stroke-miterlimit="10"/>
<path d="M102.518 15.1718H87.9097V29.7947H102.518V15.1718Z" fill="#C32E3F" stroke="#414042" stroke-width="0.25" stroke-miterlimit="10"/>
<path d="M131.413 29.7947H116.804V44.4176H131.413V29.7947Z" fill="#C32E3F" stroke="#414042" stroke-width="0.25" stroke-miterlimit="10"/>
<path d="M117.062 44.6436H102.454V59.2665H117.062V44.6436Z" fill="#C32E3F" stroke="#414042" stroke-width="0.25" stroke-miterlimit="10"/>
<path d="M117.062 59.1697H102.454V73.7926H117.062V59.1697Z" fill="#C32E3F" stroke="#414042" stroke-width="0.25" stroke-miterlimit="10"/>
<path d="M117.127 73.7926H102.518V88.4155H117.127V73.7926Z" fill="#C32E3F" stroke="#414042" stroke-width="0.25" stroke-miterlimit="10"/>
<path d="M117.127 88.3187H102.518V102.942H117.127V88.3187Z" fill="#C32E3F" stroke="#414042" stroke-width="0.25" stroke-miterlimit="10"/>
<path d="M131.348 161.853H116.74V176.476H131.348V161.853Z" fill="#C32E3F" stroke="#414042" stroke-width="0.25" stroke-miterlimit="10"/>
<path d="M131.348 176.476H116.74V191.099H131.348V176.476Z" fill="#C32E3F" stroke="#414042" stroke-width="0.25" stroke-miterlimit="10"/>
<path d="M131.348 191.099H116.74V205.722H131.348V191.099Z" fill="#C32E3F" stroke="#414042" stroke-width="0.25" stroke-miterlimit="10"/>
<path d="M131.348 205.722H116.74V220.345H131.348V205.722Z" fill="#C32E3F" stroke="#414042" stroke-width="0.25" stroke-miterlimit="10"/>
<path d="M131.348 220.474H116.74V235.097H131.348V220.474Z" fill="#C32E3F" stroke="#414042" stroke-width="0.25" stroke-miterlimit="10"/>
<path d="M131.348 235.097H116.74V249.72H131.348V235.097Z" fill="#C32E3F" stroke="#414042" stroke-width="0.25" stroke-miterlimit="10"/>
<path d="M131.348 249.817H116.74V264.44H131.348V249.817Z" fill="#C32E3F" stroke="#414042" stroke-width="0.25" stroke-miterlimit="10"/>
<path d="M131.348 264.407H116.74V279.03H131.348V264.407Z" fill="#C32E3F" stroke="#414042" stroke-width="0.25" stroke-miterlimit="10"/>
<path d="M131.348 279.03H116.74V293.653H131.348V279.03Z" fill="#C32E3F" stroke="#414042" stroke-width="0.25" stroke-miterlimit="10"/>
<path d="M131.348 293.685H116.74V308.308H131.348V293.685Z" fill="#C32E3F" stroke="#414042" stroke-width="0.25" stroke-miterlimit="10"/>
<path d="M131.348 308.308H116.74V322.931H131.348V308.308Z" fill="#C32E3F" stroke="#414042" stroke-width="0.25" stroke-miterlimit="10"/>
<path d="M131.348 322.931H116.74V337.554H131.348V322.931Z" fill="#C32E3F" stroke="#414042" stroke-width="0.25" stroke-miterlimit="10"/>
<path d="M131.348 337.748H116.74V352.371H131.348V337.748Z" fill="#C32E3F" stroke="#414042" stroke-width="0.25" stroke-miterlimit="10"/>
<path d="M131.348 352.371H116.74V366.994H131.348V352.371Z" fill="#C32E3F" stroke="#414042" stroke-width="0.25" stroke-miterlimit="10"/>
<path d="M131.348 366.994H116.74V381.617H131.348V366.994Z" fill="#C32E3F" stroke="#414042" stroke-width="0.25" stroke-miterlimit="10"/>
<path d="M145.957 205.722H131.349V220.345H145.957V205.722Z" fill="#C32E3F" stroke="#414042" stroke-width="0.25" stroke-miterlimit="10"/>
<path d="M160.566 176.476H145.957V191.099H160.566V176.476Z" fill="#231F20" stroke="#414042" stroke-width="0.25" stroke-miterlimit="10"/>
<path d="M160.566 191.099H145.957V205.722H160.566V191.099Z" fill="#231F20" stroke="#414042" stroke-width="0.25" stroke-miterlimit="10"/>
<path d="M175.174 161.724H160.565V176.347H175.174V161.724Z" fill="#231F20" stroke="#414042" stroke-width="0.25" stroke-miterlimit="10"/>
<path d="M175.174 176.444H160.565V191.067H175.174V176.444Z" fill="#231F20" stroke="#414042" stroke-width="0.25" stroke-miterlimit="10"/>
<path d="M145.957 132.51H131.349V147.133H145.957V132.51Z" fill="#C32E3F" stroke="#414042" stroke-width="0.25" stroke-miterlimit="10"/>
<path d="M145.957 147.133H131.349V161.756H145.957V147.133Z" fill="#C32E3F" stroke="#414042" stroke-width="0.25" stroke-miterlimit="10"/>
<path d="M160.566 117.758H145.957V132.381H160.566V117.758Z" fill="#C32E3F" stroke="#414042" stroke-width="0.25" stroke-miterlimit="10"/>
<path d="M160.566 132.478H145.957V147.101H160.566V132.478Z" fill="#C32E3F" stroke="#414042" stroke-width="0.25" stroke-miterlimit="10"/>
<path d="M145.957 235.097H131.349V249.72H145.957V235.097Z" fill="#C32E3F" stroke="#414042" stroke-width="0.25" stroke-miterlimit="10"/>
<path d="M145.957 220.442H131.349V235.065H145.957V220.442Z" fill="#C32E3F" stroke="#414042" stroke-width="0.25" stroke-miterlimit="10"/>
<path d="M145.957 249.784H131.349V264.407H145.957V249.784Z" fill="#C32E3F" stroke="#414042" stroke-width="0.25" stroke-miterlimit="10"/>
<path d="M145.957 264.407H131.349V279.03H145.957V264.407Z" fill="#C32E3F" stroke="#414042" stroke-width="0.25" stroke-miterlimit="10"/>
<path d="M145.957 279.03H131.349V293.653H145.957V279.03Z" fill="#C32E3F" stroke="#414042" stroke-width="0.25" stroke-miterlimit="10"/>
<path d="M145.957 293.653H131.349V308.276H145.957V293.653Z" fill="#C32E3F" stroke="#414042" stroke-width="0.25" stroke-miterlimit="10"/>
<path d="M145.957 308.276H131.349V322.899H145.957V308.276Z" fill="#C32E3F" stroke="#414042" stroke-width="0.25" stroke-miterlimit="10"/>
<path d="M145.957 322.931H131.349V337.554H145.957V322.931Z" fill="#C32E3F" stroke="#414042" stroke-width="0.25" stroke-miterlimit="10"/>
<path d="M145.957 337.716H131.349V352.339H145.957V337.716Z" fill="#C32E3F" stroke="#414042" stroke-width="0.25" stroke-miterlimit="10"/>
<path d="M145.957 352.339H131.349V366.962H145.957V352.339Z" fill="#C32E3F" stroke="#414042" stroke-width="0.25" stroke-miterlimit="10"/>
<path d="M145.957 366.994H131.349V381.617H145.957V366.994Z" fill="#C32E3F" stroke="#414042" stroke-width="0.25" stroke-miterlimit="10"/>
<path d="M160.566 249.784H145.957V264.407H160.566V249.784Z" fill="#C32E3F" stroke="#414042" stroke-width="0.25" stroke-miterlimit="10"/>
<path d="M160.566 264.375H145.957V278.998H160.566V264.375Z" fill="#C32E3F" stroke="#414042" stroke-width="0.25" stroke-miterlimit="10"/>
<path d="M174.948 220.538H160.34V235.161H174.948V220.538Z" fill="#C32E3F" stroke="#414042" stroke-width="0.25" stroke-miterlimit="10"/>
<path d="M174.948 235.161H160.34V249.784H174.948V235.161Z" fill="#C32E3F" stroke="#414042" stroke-width="0.25" stroke-miterlimit="10"/>
<path d="M189.557 205.948H174.948V220.571H189.557V205.948Z" fill="#C32E3F" stroke="#414042" stroke-width="0.25" stroke-miterlimit="10"/>
<path d="M189.557 220.538H174.948V235.161H189.557V220.538Z" fill="#C32E3F" stroke="#414042" stroke-width="0.25" stroke-miterlimit="10"/>
<path d="M160.566 279.03H145.957V293.653H160.566V279.03Z" fill="#C32E3F" stroke="#414042" stroke-width="0.25" stroke-miterlimit="10"/>
<path d="M160.566 293.653H145.957V308.276H160.566V293.653Z" fill="#C32E3F" stroke="#414042" stroke-width="0.25" stroke-miterlimit="10"/>
<path d="M160.566 308.276H145.957V322.899H160.566V308.276Z" fill="#C32E3F" stroke="#414042" stroke-width="0.25" stroke-miterlimit="10"/>
<path d="M160.566 322.899H145.957V337.522H160.566V322.899Z" fill="#C32E3F" stroke="#414042" stroke-width="0.25" stroke-miterlimit="10"/>
<path d="M160.566 337.716H145.957V352.339H160.566V337.716Z" fill="#C32E3F" stroke="#414042" stroke-width="0.25" stroke-miterlimit="10"/>
<path d="M160.566 352.339H145.957V366.962H160.566V352.339Z" fill="#C32E3F" stroke="#414042" stroke-width="0.25" stroke-miterlimit="10"/>
<path d="M160.566 366.961H145.957V381.584H160.566V366.961Z" fill="#C32E3F" stroke="#414042" stroke-width="0.25" stroke-miterlimit="10"/>
<path d="M175.174 322.899H160.565V337.522H175.174V322.899Z" fill="#C32E3F" stroke="#414042" stroke-width="0.25" stroke-miterlimit="10"/>
<path d="M175.174 337.716H160.565V352.339H175.174V337.716Z" fill="#C32E3F" stroke="#414042" stroke-width="0.25" stroke-miterlimit="10"/>
<path d="M175.174 352.339H160.565V366.962H175.174V352.339Z" fill="#C32E3F" stroke="#414042" stroke-width="0.25" stroke-miterlimit="10"/>
<path d="M175.174 366.961H160.565V381.584H175.174V366.961Z" fill="#C32E3F" stroke="#414042" stroke-width="0.25" stroke-miterlimit="10"/>
<path d="M189.46 366.929H174.852V381.552H189.46V366.929Z" fill="#C32E3F" stroke="#414042" stroke-width="0.25" stroke-miterlimit="10"/>
<path d="M203.972 352.371H189.364V366.994H203.972V352.371Z" fill="#C32E3F" stroke="#414042" stroke-width="0.25" stroke-miterlimit="10"/>
<path d="M203.972 337.748H189.364V352.371H203.972V337.748Z" fill="#C32E3F" stroke="#414042" stroke-width="0.25" stroke-miterlimit="10"/>
<path d="M218.613 337.748H204.004V352.371H218.613V337.748Z" fill="#C32E3F" stroke="#414042" stroke-width="0.25" stroke-miterlimit="10"/>
<path d="M218.613 323.093H204.004V337.716H218.613V323.093Z" fill="#C32E3F" stroke="#414042" stroke-width="0.25" stroke-miterlimit="10"/>
<path d="M189.88 308.276H175.271V322.899H189.88V308.276Z" fill="#231F20" stroke="#414042" stroke-width="0.25" stroke-miterlimit="10"/>
<path d="M189.88 293.653H175.271V308.276H189.88V293.653Z" fill="#231F20" stroke="#414042" stroke-width="0.25" stroke-miterlimit="10"/>
<path d="M204.488 293.653H189.879V308.276H204.488V293.653Z" fill="#231F20" stroke="#414042" stroke-width="0.25" stroke-miterlimit="10"/>
<path d="M204.488 279.03H189.879V293.653H204.488V279.03Z" fill="#231F20" stroke="#414042" stroke-width="0.25" stroke-miterlimit="10"/>
<path d="M102.357 161.982H87.7485V176.605H102.357V161.982Z" fill="#C32E3F" stroke="#414042" stroke-width="0.25" stroke-miterlimit="10"/>
<path d="M102.357 176.605H87.7485V191.228H102.357V176.605Z" fill="#C32E3F" stroke="#414042" stroke-width="0.25" stroke-miterlimit="10"/>
<path d="M102.357 191.26H87.7485V205.883H102.357V191.26Z" fill="#C32E3F" stroke="#414042" stroke-width="0.25" stroke-miterlimit="10"/>
<path d="M102.357 205.883H87.7485V220.506H102.357V205.883Z" fill="#C32E3F" stroke="#414042" stroke-width="0.25" stroke-miterlimit="10"/>
<path d="M102.357 220.603H87.7485V235.226H102.357V220.603Z" fill="#C32E3F" stroke="#414042" stroke-width="0.25" stroke-miterlimit="10"/>
<path d="M102.357 235.258H87.7485V249.881H102.357V235.258Z" fill="#C32E3F" stroke="#414042" stroke-width="0.25" stroke-miterlimit="10"/>
<path d="M102.357 249.946H87.7485V264.569H102.357V249.946Z" fill="#C32E3F" stroke="#414042" stroke-width="0.25" stroke-miterlimit="10"/>
<path d="M102.357 264.569H87.7485V279.192H102.357V264.569Z" fill="#C32E3F" stroke="#414042" stroke-width="0.25" stroke-miterlimit="10"/>
<path d="M102.357 279.192H87.7485V293.815H102.357V279.192Z" fill="#C32E3F" stroke="#414042" stroke-width="0.25" stroke-miterlimit="10"/>
<path d="M102.357 293.815H87.7485V308.438H102.357V293.815Z" fill="#C32E3F" stroke="#414042" stroke-width="0.25" stroke-miterlimit="10"/>
<path d="M102.357 308.438H87.7485V323.06H102.357V308.438Z" fill="#C32E3F" stroke="#414042" stroke-width="0.25" stroke-miterlimit="10"/>
<path d="M102.357 323.093H87.7485V337.716H102.357V323.093Z" fill="#C32E3F" stroke="#414042" stroke-width="0.25" stroke-miterlimit="10"/>
<path d="M102.357 337.877H87.7485V352.5H102.357V337.877Z" fill="#C32E3F" stroke="#414042" stroke-width="0.25" stroke-miterlimit="10"/>
<path d="M102.357 352.5H87.7485V367.123H102.357V352.5Z" fill="#C32E3F" stroke="#414042" stroke-width="0.25" stroke-miterlimit="10"/>
<path d="M102.357 367.155H87.7485V381.778H102.357V367.155Z" fill="#C32E3F" stroke="#414042" stroke-width="0.25" stroke-miterlimit="10"/>
<path d="M87.7482 205.69H73.1396V220.313H87.7482V205.69Z" fill="#C32E3F" stroke="#414042" stroke-width="0.25" stroke-miterlimit="10"/>
<path d="M87.7482 220.442H73.1396V235.065H87.7482V220.442Z" fill="#C32E3F" stroke="#414042" stroke-width="0.25" stroke-miterlimit="10"/>
<path d="M87.7482 235.065H73.1396V249.688H87.7482V235.065Z" fill="#C32E3F" stroke="#414042" stroke-width="0.25" stroke-miterlimit="10"/>
<path d="M87.7482 249.784H73.1396V264.407H87.7482V249.784Z" fill="#C32E3F" stroke="#414042" stroke-width="0.25" stroke-miterlimit="10"/>
<path d="M87.7482 264.375H73.1396V278.998H87.7482V264.375Z" fill="#C32E3F" stroke="#414042" stroke-width="0.25" stroke-miterlimit="10"/>
<path d="M87.7482 278.998H73.1396V293.621H87.7482V278.998Z" fill="#C32E3F" stroke="#414042" stroke-width="0.25" stroke-miterlimit="10"/>
<path d="M58.5632 220.538H43.9546V235.161H58.5632V220.538Z" fill="#C32E3F" stroke="#414042" stroke-width="0.25" stroke-miterlimit="10"/>
<path d="M58.5632 235.161H43.9546V249.784H58.5632V235.161Z" fill="#C32E3F" stroke="#414042" stroke-width="0.25" stroke-miterlimit="10"/>
<path d="M43.9548 205.722H29.3462V220.345H43.9548V205.722Z" fill="#C32E3F" stroke="#414042" stroke-width="0.25" stroke-miterlimit="10"/>
<path d="M43.9548 220.345H29.3462V234.968H43.9548V220.345Z" fill="#C32E3F" stroke="#414042" stroke-width="0.25" stroke-miterlimit="10"/>
<path d="M87.7482 293.621H73.1396V308.244H87.7482V293.621Z" fill="#C32E3F" stroke="#414042" stroke-width="0.25" stroke-miterlimit="10"/>
<path d="M87.7482 308.276H73.1396V322.899H87.7482V308.276Z" fill="#C32E3F" stroke="#414042" stroke-width="0.25" stroke-miterlimit="10"/>
<path d="M87.7482 322.899H73.1396V337.522H87.7482V322.899Z" fill="#C32E3F" stroke="#414042" stroke-width="0.25" stroke-miterlimit="10"/>
<path d="M87.7482 337.683H73.1396V352.306H87.7482V337.683Z" fill="#C32E3F" stroke="#414042" stroke-width="0.25" stroke-miterlimit="10"/>
<path d="M87.7482 352.339H73.1396V366.962H87.7482V352.339Z" fill="#C32E3F" stroke="#414042" stroke-width="0.25" stroke-miterlimit="10"/>
<path d="M87.7482 366.961H73.1396V381.584H87.7482V366.961Z" fill="#C32E3F" stroke="#414042" stroke-width="0.25" stroke-miterlimit="10"/>
<path d="M73.1399 249.784H58.5312V264.407H73.1399V249.784Z" fill="#C32E3F" stroke="#414042" stroke-width="0.25" stroke-miterlimit="10"/>
<path d="M73.1399 264.375H58.5312V278.998H73.1399V264.375Z" fill="#C32E3F" stroke="#414042" stroke-width="0.25" stroke-miterlimit="10"/>
<path d="M73.1399 278.998H58.5312V293.621H73.1399V278.998Z" fill="#C32E3F" stroke="#414042" stroke-width="0.25" stroke-miterlimit="10"/>
<path d="M73.1399 293.621H58.5312V308.244H73.1399V293.621Z" fill="#C32E3F" stroke="#414042" stroke-width="0.25" stroke-miterlimit="10"/>
<path d="M73.1399 308.276H58.5312V322.899H73.1399V308.276Z" fill="#C32E3F" stroke="#414042" stroke-width="0.25" stroke-miterlimit="10"/>
<path d="M73.1399 322.899H58.5312V337.522H73.1399V322.899Z" fill="#C32E3F" stroke="#414042" stroke-width="0.25" stroke-miterlimit="10"/>
<path d="M73.1399 337.683H58.5312V352.306H73.1399V337.683Z" fill="#C32E3F" stroke="#414042" stroke-width="0.25" stroke-miterlimit="10"/>
<path d="M73.1399 352.339H58.5312V366.962H73.1399V352.339Z" fill="#C32E3F" stroke="#414042" stroke-width="0.25" stroke-miterlimit="10"/>
<path d="M73.1399 366.961H58.5312V381.584H73.1399V366.961Z" fill="#C32E3F" stroke="#414042" stroke-width="0.25" stroke-miterlimit="10"/>
<path d="M58.4021 322.931H43.7935V337.554H58.4021V322.931Z" fill="#C32E3F" stroke="#414042" stroke-width="0.25" stroke-miterlimit="10"/>
<path d="M58.4021 337.716H43.7935V352.339H58.4021V337.716Z" fill="#C32E3F" stroke="#414042" stroke-width="0.25" stroke-miterlimit="10"/>
<path d="M58.4021 352.371H43.7935V366.994H58.4021V352.371Z" fill="#C32E3F" stroke="#414042" stroke-width="0.25" stroke-miterlimit="10"/>
<path d="M58.4021 366.994H43.7935V381.617H58.4021V366.994Z" fill="#C32E3F" stroke="#414042" stroke-width="0.25" stroke-miterlimit="10"/>
<path d="M44.2448 367.026H29.6362V381.649H44.2448V367.026Z" fill="#C32E3F" stroke="#414042" stroke-width="0.25" stroke-miterlimit="10"/>
<path d="M29.6364 352.371H15.0278V366.994H29.6364V352.371Z" fill="#C32E3F" stroke="#414042" stroke-width="0.25" stroke-miterlimit="10"/>
<path d="M29.6364 337.683H15.0278V352.306H29.6364V337.683Z" fill="#C32E3F" stroke="#414042" stroke-width="0.25" stroke-miterlimit="10"/>
<path d="M14.9958 337.716H0.387207V352.339H14.9958V337.716Z" fill="#C32E3F" stroke="#414042" stroke-width="0.25" stroke-miterlimit="10"/>
<path d="M14.9958 323.125H0.387207V337.748H14.9958V323.125Z" fill="#C32E3F" stroke="#414042" stroke-width="0.25" stroke-miterlimit="10"/>
<path d="M43.7937 308.082H29.1851V322.705H43.7937V308.082Z" fill="#231F20" stroke="#414042" stroke-width="0.25" stroke-miterlimit="10"/>
<path d="M43.7937 293.395H29.1851V308.018H43.7937V293.395Z" fill="#231F20" stroke="#414042" stroke-width="0.25" stroke-miterlimit="10"/>
<path d="M29.1848 293.459H14.5762V308.082H29.1848V293.459Z" fill="#231F20" stroke="#414042" stroke-width="0.25" stroke-miterlimit="10"/>
<path d="M29.1848 278.837H14.5762V293.46H29.1848V278.837Z" fill="#231F20" stroke="#414042" stroke-width="0.25" stroke-miterlimit="10"/>
<path d="M72.8816 191.228H58.2729V205.851H72.8816V191.228Z" fill="#231F20" stroke="#414042" stroke-width="0.25" stroke-miterlimit="10"/>
<path d="M72.8816 176.541H58.2729V191.163H72.8816V176.541Z" fill="#231F20" stroke="#414042" stroke-width="0.25" stroke-miterlimit="10"/>
<path d="M58.2731 176.605H43.6646V191.228H58.2731V176.605Z" fill="#231F20" stroke="#414042" stroke-width="0.25" stroke-miterlimit="10"/>
<path d="M58.2731 161.982H43.6646V176.605H58.2731V161.982Z" fill="#231F20" stroke="#414042" stroke-width="0.25" stroke-miterlimit="10"/>
<path d="M87.716 147.359H73.1074V161.982H87.716V147.359Z" fill="#C32E3F" stroke="#414042" stroke-width="0.25" stroke-miterlimit="10"/>
<path d="M87.716 132.672H73.1074V147.295H87.716V132.672Z" fill="#C32E3F" stroke="#414042" stroke-width="0.25" stroke-miterlimit="10"/>
<path d="M73.1076 132.736H58.499V147.359H73.1076V132.736Z" fill="#C32E3F" stroke="#414042" stroke-width="0.25" stroke-miterlimit="10"/>
<path d="M73.1076 118.146H58.499V132.769H73.1076V118.146Z" fill="#C32E3F" stroke="#414042" stroke-width="0.25" stroke-miterlimit="10"/>
<path d="M131.671 425.615H117.062V440.238H131.671V425.615Z" fill="#C32E3F" stroke="#414042" stroke-width="0.25" stroke-miterlimit="10"/>
<path d="M102.389 425.615H87.7808V440.238H102.389V425.615Z" fill="#C32E3F" stroke="#414042" stroke-width="0.25" stroke-miterlimit="10"/>
<path d="M117.03 381.617H102.421V396.24H117.03V381.617Z" fill="#C32E3F" stroke="#414042" stroke-width="0.25" stroke-miterlimit="10"/>
<path d="M117.03 396.272H102.421V410.895H117.03V396.272Z" fill="#C32E3F" stroke="#414042" stroke-width="0.25" stroke-miterlimit="10"/>
<path d="M117.03 411.056H102.421V425.679H117.03V411.056Z" fill="#C32E3F" stroke="#414042" stroke-width="0.25" stroke-miterlimit="10"/>
<path d="M117.03 425.679H102.421V440.302H117.03V425.679Z" fill="#C32E3F" stroke="#414042" stroke-width="0.25" stroke-miterlimit="10"/>
<path d="M117.03 440.334H102.421V454.957H117.03V440.334Z" fill="#C32E3F" stroke="#414042" stroke-width="0.25" stroke-miterlimit="10"/>
<path d="M117.03 454.957H102.421V469.58H117.03V454.957Z" fill="#C32E3F" stroke="#414042" stroke-width="0.25" stroke-miterlimit="10"/>
<path d="M116.966 118.049H102.357V132.672H116.966V118.049Z" fill="#C32E3F" stroke="#414042" stroke-width="0.25" stroke-miterlimit="10"/>
<path d="M117.03 132.672H102.421V147.295H117.03V132.672Z" fill="#C32E3F" stroke="#414042" stroke-width="0.25" stroke-miterlimit="10"/>
<path d="M117.03 147.198H102.421V161.821H117.03V147.198Z" fill="#C32E3F" stroke="#414042" stroke-width="0.25" stroke-miterlimit="10"/>
<path d="M102.583 29.7947H87.9741V44.4176H102.583V29.7947Z" fill="#C32E3F" stroke="#414042" stroke-width="0.25" stroke-miterlimit="10"/>
<path d="M130.994 103.426H116.385V118.049H130.994V103.426Z" fill="#C32E3F" stroke="#414042" stroke-width="0.25" stroke-miterlimit="10"/>
<path d="M102.163 103.426H87.5547V118.049H102.163V103.426Z" fill="#C32E3F" stroke="#414042" stroke-width="0.25" stroke-miterlimit="10"/>
<path d="M88.0388 15.1718H73.4302V29.7947H88.0388V15.1718Z" fill="#C32E3F" stroke="#414042" stroke-width="0.25" stroke-miterlimit="10"/>
<path d="M116.869 15.1718H102.26V29.7947H116.869V15.1718Z" fill="#231F20" stroke="#414042" stroke-width="0.25" stroke-miterlimit="10"/>
<path d="M116.998 29.7947H102.389V44.4176H116.998V29.7947Z" fill="#231F20" stroke="#414042" stroke-width="0.25" stroke-miterlimit="10"/>
<path d="M117.127 103.426H102.518V118.049H117.127V103.426Z" fill="#231F20" stroke="#414042" stroke-width="0.25" stroke-miterlimit="10"/>
<path d="M116.901 161.982H102.292V176.605H116.901V161.982Z" fill="white" stroke="#414042" stroke-width="0.25" stroke-miterlimit="10"/>
<path d="M116.869 205.883H102.26V220.506H116.869V205.883Z" fill="white" stroke="#414042" stroke-width="0.25" stroke-miterlimit="10"/>
<path d="M116.869 220.442H102.26V235.065H116.869V220.442Z" fill="white" stroke="#414042" stroke-width="0.25" stroke-miterlimit="10"/>
<path d="M116.966 235.065H102.357V249.688H116.966V235.065Z" fill="white" stroke="#414042" stroke-width="0.25" stroke-miterlimit="10"/>
<path d="M116.933 249.784H102.325V264.407H116.933V249.784Z" fill="white" stroke="#414042" stroke-width="0.25" stroke-miterlimit="10"/>
<path d="M116.901 279.03H102.292V293.653H116.901V279.03Z" fill="white" stroke="#414042" stroke-width="0.25" stroke-miterlimit="10"/>
<path d="M116.901 308.438H102.292V323.06H116.901V308.438Z" fill="white" stroke="#414042" stroke-width="0.25" stroke-miterlimit="10"/>
<path d="M116.901 293.815H102.292V308.438H116.901V293.815Z" fill="white" stroke="#414042" stroke-width="0.25" stroke-miterlimit="10"/>
<path d="M116.901 176.605H102.292V191.228H116.901V176.605Z" fill="white" stroke="#414042" stroke-width="0.25" stroke-miterlimit="10"/>
<path d="M116.869 191.26H102.26V205.883H116.869V191.26Z" fill="white" stroke="#414042" stroke-width="0.25" stroke-miterlimit="10"/>
<path d="M116.933 264.407H102.325V279.03H116.933V264.407Z" fill="white" stroke="#414042" stroke-width="0.25" stroke-miterlimit="10"/>
<path d="M117.062 323.125H102.454V337.748H117.062V323.125Z" fill="white" stroke="#414042" stroke-width="0.25" stroke-miterlimit="10"/>
<path d="M117.062 337.877H102.454V352.5H117.062V337.877Z" fill="white" stroke="#414042" stroke-width="0.25" stroke-miterlimit="10"/>
<path d="M116.998 367.123H102.389V381.746H116.998V367.123Z" fill="white" stroke="#414042" stroke-width="0.25" stroke-miterlimit="10"/>
<path d="M117.062 352.468H102.454V367.091H117.062V352.468Z" fill="white" stroke="#414042" stroke-width="0.25" stroke-miterlimit="10"/>
</g>
<defs>
<clipPath id="clip0_1_4963">
<rect width="219" height="470" fill="white"/>
</clipPath>
</defs>
</svg>
