<svg width="489" height="1318" viewBox="0 0 489 1318" fill="none" xmlns="http://www.w3.org/2000/svg">
<g clip-path="url(#clip0_1_232)">
<path d="M264.748 116.864C269.571 116.27 274.375 116.883 279.143 117.012C285.283 117.179 291.2 113.859 297.656 114.175C300.605 114.323 303.647 113.822 306.56 113.192C312.589 111.875 316.317 113.878 319.063 119.59C323.459 128.715 325.926 128.549 335.739 126.787C342.974 125.488 348.928 123.559 353.213 117.513C353.473 117.142 353.993 116.549 354.197 116.623C363.713 119.794 366.625 110.966 372.227 106.923C375.195 104.771 375.047 101.711 375.362 98.9477C375.993 93.4392 376.679 88.0235 379.499 83.09C380.037 82.1442 380.538 80.7531 380.26 79.7887C377.477 69.9774 382.486 62.6884 387.494 55.1213C389.683 51.8014 390.703 51.0224 392.985 54.5649C394.098 56.3083 395.452 57.9033 396.509 59.6653C398.513 62.9666 400.238 63.5972 401.87 59.4242C402.612 57.5138 404.449 56.9203 406.1 56.1228C414.373 52.1167 422.814 48.4258 427.154 39.3379C428.527 36.4445 431.625 36.018 434.89 36.0551C449.006 36.2405 454.905 31.4554 457.651 18.046C458.319 14.7632 459.654 11.7586 462.492 9.99663C467.761 6.73237 473.214 3.76487 478.649 0.778812C481.636 -0.853317 482.916 0.278045 482.656 3.5794C482.304 8.23467 479.762 11.7771 476.776 15.0043C470.858 21.403 469.133 28.8774 470.506 37.3348C471.248 41.8417 472.268 46.4784 469.226 50.6515C466.796 53.9899 469.578 55.5664 471.526 57.4582C479.744 65.4519 480.838 73.0191 475.051 83.0715C472.936 86.7252 474.123 88.3759 477.889 89.5258C489.26 92.9941 492.321 102.342 485.123 111.504C483.621 113.396 482.972 114.787 484.752 116.864C485.977 118.274 488.314 119.739 486.496 122.057C485.012 123.949 482.545 123.708 480.746 122.947C474.531 120.314 475.403 123.912 475.31 128.085C475.088 138.211 477.165 148.078 478.019 158.075C478.52 163.862 479.076 169.463 483.157 174.1C485.29 176.529 485.81 179.46 484.307 182.446C476.887 197.191 467.927 211.027 459.042 224.9C455.258 230.798 449.229 229.815 444.35 232.207C443.145 232.801 440.789 232.931 440.696 233.561C439.342 241.759 430.623 241.499 426.357 246.303C420.792 252.59 411.683 250.624 405.117 254.872C401.648 257.116 396.676 257.394 397.196 263.663C397.326 265.351 394.432 267.576 392.558 269.06C385.899 274.327 385.194 276.998 389.479 284.677C391.538 288.386 387.642 292.132 390.184 295.897C393.393 300.645 386.492 301.332 386.455 303.038C386.363 307.044 380.686 311.18 386.121 315.131C389.535 317.616 389.683 320.25 387.29 323.699C385.899 325.721 384.229 327.817 387.309 330.84C389.794 333.307 385.639 336.311 385.046 339.371C383.524 347.328 379.666 354.932 382.578 363.39C383.079 364.836 383.098 366.543 382.968 368.101C381.762 382.567 383.858 396.867 385.12 411.204C385.472 415.173 385.917 418.956 383.914 422.591C383.803 422.795 383.654 422.999 383.636 423.222C382.226 439.84 371.56 454.158 371.727 471.166C371.764 473.966 371.727 476.711 373.99 478.826C374.49 479.289 375.27 480.161 375.121 480.476C371.226 489.193 380.482 497.113 376.642 505.811C376.086 507.054 376.012 508.556 375.344 509.725C370.242 518.46 370.576 522.893 377.032 530.405C377.458 530.905 378.256 531.87 378.219 531.926C373.452 536.507 379.814 541.44 377.514 546.633C375.288 551.641 378.349 557.428 379.295 562.825C379.851 565.959 379.684 568.537 378.33 571.393C365.512 598.082 356.682 625.662 356.961 655.8C357.09 670.36 358.871 685.438 352.045 699.256C347.055 709.327 341.824 719.305 336.147 728.987C331.695 736.572 332.289 743.231 337.65 749.889C340.395 753.302 342.751 757.011 345.571 760.349C354.716 771.181 353.863 786.408 346.944 799.075C345.404 801.895 343.586 804.602 341.62 807.143C336.333 813.969 335.498 821.369 338.652 829.196C341.174 835.464 340.154 840.528 333.977 843.644C325.667 847.854 321.103 854.772 317.931 863.211C316.317 867.514 315.835 871.649 316.744 875.971C317.82 881.071 317.282 884.725 311.791 887.507C306.133 890.363 303.481 896.206 304 902.53C304.761 911.748 301.069 919.352 297.34 927.346C292.054 938.697 285.023 949.12 280.089 960.545C275.47 971.284 275.229 983.32 272.094 994.56C271.055 998.288 270.628 1002.63 268.402 1005.5C263.857 1011.36 263.802 1016.48 267.994 1022.32C269.979 1025.09 271.315 1028.35 272.947 1031.38C275.952 1036.98 276.527 1042.26 271.036 1046.84C270.331 1047.42 269.441 1048.14 269.274 1048.94C267.085 1059.1 262.281 1069.04 263.449 1079.5C264.618 1089.93 267.716 1100.15 270.257 1110.39C270.962 1113.22 270.294 1115.21 268.699 1117.38C265.824 1121.25 263.375 1125.48 260.296 1129.17C246.569 1145.57 241.449 1164.6 243.285 1185.54C243.972 1193.31 241.95 1199.97 238.166 1206.46C235.216 1211.52 233.751 1216.81 234.548 1222.89C235.012 1226.4 234.214 1230.31 233.083 1233.74C229.206 1245.56 228.297 1257.59 229.614 1269.81C230.133 1274.54 228.39 1277.83 224.828 1280.46C221.841 1282.65 218.317 1284.8 217.13 1288.18C213.364 1298.84 204.089 1305.46 198.617 1314.79C196.131 1319.02 194.424 1318.89 191.345 1315.11C182.997 1304.87 179.158 1293.93 183.461 1280.78C185.984 1273.06 185.947 1265.34 180.716 1258.43C179.417 1256.72 178.657 1254.66 179.009 1252.58C181.05 1240.55 175.707 1230.11 171.942 1219.35C165.134 1199.89 156.452 1180.92 151.536 1161.02C141.148 1118.94 121.337 1080.02 111.468 1037.87C110.856 1035.23 109.391 1033.42 107.09 1032.01C103.566 1029.85 100.171 1027.46 96.7208 1025.2C89.4862 1020.49 88.0393 1016.37 90.6734 1007.93C90.8033 1007.49 90.7847 1006.97 91.0073 1006.6C96.5724 997.806 94.773 990.443 86.8892 984.044C83.3832 981.206 82.7896 977.515 83.3461 972.916C85.3681 955.982 81.25 939.105 74.034 924.879C48.0267 873.615 31.684 819.088 15.397 764.411C10.5554 748.183 5.95497 731.861 0.705287 715.763C-0.778723 711.182 0.315734 708.715 3.46926 705.655C27.603 682.193 50.6422 657.655 69.2295 629.501C85.3495 605.093 102.341 581.131 113.917 553.996C124.194 529.922 136.882 506.887 144.042 481.459C147.641 468.681 153.948 456.644 157.528 443.865C165.95 413.763 174.817 383.81 180.809 353.022C183.461 339.353 186.707 325.721 189.564 312.052C193.59 292.893 198.357 273.752 198.802 254.074C198.932 248.232 204.312 245.691 204.645 239.886C205.183 230.297 207.409 220.801 207.076 211.101C206.983 208.263 207.558 206.038 210.322 205.036C213.197 203.997 215.831 202.81 219.003 205.333C227.314 211.936 231.265 211.101 236.7 201.827C240.429 195.466 242.729 188.474 243.805 181.148C243.972 180.035 244.194 178.44 243.601 177.809C237.071 170.817 242.135 163.417 243.044 156.387C244.621 144.128 249.796 132.518 250.279 120.017C250.39 116.92 252.208 116.808 254.397 116.808C257.847 116.808 261.298 116.808 264.766 116.808L264.748 116.864Z" fill="#115A05"/>
</g>
<defs>
<clipPath id="clip0_1_232">
<rect width="489" height="1318" fill="white"/>
</clipPath>
</defs>
</svg>
