<svg width="32" height="87" viewBox="0 0 32 87" fill="none" xmlns="http://www.w3.org/2000/svg">
<g clip-path="url(#clip0_1_14463)">
<path d="M17.325 7.71415C17.6407 7.67497 17.9551 7.71537 18.267 7.72394C18.6688 7.73496 19.0561 7.51582 19.4785 7.53663C19.6715 7.54642 19.8706 7.51337 20.0612 7.47174C20.4557 7.38482 20.6997 7.51704 20.8794 7.89411C21.1671 8.49645 21.3285 8.48543 21.9707 8.36913C22.4441 8.28343 22.8338 8.15611 23.1142 7.757C23.1312 7.73251 23.1652 7.69334 23.1785 7.69823C23.8013 7.90758 23.9919 7.32483 24.3585 7.05794C24.5527 6.91593 24.543 6.71392 24.5636 6.53151C24.6049 6.1679 24.6498 5.81041 24.8343 5.48476C24.8695 5.42232 24.9023 5.3305 24.8841 5.26684C24.702 4.6192 25.0298 4.13807 25.3575 3.63857C25.5008 3.41942 25.5675 3.368 25.7168 3.60184C25.7897 3.71692 25.8783 3.82221 25.9475 3.93851C26.0786 4.15643 26.1915 4.19806 26.2983 3.9226C26.3469 3.7965 26.467 3.75732 26.5751 3.70468C27.1165 3.44024 27.6688 3.19661 27.9529 2.59672C28.0427 2.40573 28.2454 2.37757 28.4591 2.38002C29.3829 2.39226 29.7689 2.0764 29.9485 1.19126C29.9922 0.974564 30.0796 0.776233 30.2654 0.659927C30.6101 0.444457 30.967 0.248574 31.3227 0.0514674C31.5181 -0.056268 31.6019 0.0184122 31.5849 0.236332C31.5618 0.543622 31.3955 0.777457 31.2001 0.990479C30.8128 1.41285 30.7 1.90623 30.7898 2.4645C30.8383 2.76199 30.9051 3.06806 30.706 3.34352C30.547 3.56389 30.7291 3.66795 30.8566 3.79282C31.3943 4.32048 31.4659 4.81998 31.0872 5.48354C30.9488 5.72472 31.0265 5.83367 31.2729 5.90958C32.017 6.13852 32.2173 6.75555 31.7463 7.36033C31.648 7.48521 31.6055 7.57703 31.7221 7.71415C31.8022 7.80719 31.9551 7.90391 31.8362 8.05694C31.7391 8.18182 31.5776 8.1659 31.4599 8.11571C31.0532 7.94186 31.1103 8.17937 31.1042 8.45483C31.0896 9.12328 31.2256 9.77459 31.2814 10.4345C31.3142 10.8164 31.3506 11.1862 31.6177 11.4922C31.7573 11.6526 31.7913 11.846 31.6929 12.0432C31.2074 13.0164 30.6211 13.9297 30.0396 14.8455C29.7919 15.2348 29.3974 15.1699 29.0782 15.3279C28.9993 15.367 28.8451 15.3756 28.839 15.4172C28.7504 15.9584 28.1799 15.9412 27.9007 16.2583C27.5365 16.6733 26.9405 16.5436 26.5107 16.8239C26.2837 16.972 25.9584 16.9904 25.9924 17.4042C26.0009 17.5156 25.8115 17.6625 25.6889 17.7605C25.2531 18.1082 25.207 18.2845 25.4874 18.7913C25.6222 19.0362 25.3672 19.2835 25.5335 19.532C25.7435 19.8454 25.292 19.8907 25.2895 20.0033C25.2835 20.2678 24.912 20.5408 25.2677 20.8015C25.491 20.9656 25.5008 21.1394 25.3442 21.3672C25.2531 21.5006 25.1439 21.6389 25.3454 21.8385C25.508 22.0013 25.2361 22.1997 25.1973 22.4017C25.0977 22.9269 24.8452 23.4288 25.0358 23.9871C25.0686 24.0826 25.0698 24.1952 25.0613 24.2981C24.9824 25.253 25.1196 26.1969 25.2021 27.1432C25.2252 27.4052 25.2543 27.655 25.1232 27.8949C25.1159 27.9084 25.1062 27.9219 25.105 27.9366C25.0128 29.0335 24.3148 29.9786 24.3257 31.1013C24.3281 31.2862 24.3257 31.4674 24.4738 31.6069C24.5066 31.6375 24.5575 31.6951 24.5478 31.7159C24.2929 32.2913 24.8987 32.814 24.6474 33.3882C24.611 33.4703 24.6061 33.5694 24.5624 33.6465C24.2286 34.2232 24.2504 34.5158 24.6729 35.0116C24.7008 35.0447 24.753 35.1083 24.7506 35.112C24.4386 35.4144 24.855 35.74 24.7044 36.0828C24.5588 36.4134 24.7591 36.7954 24.821 37.1516C24.8574 37.3585 24.8465 37.5287 24.7578 37.7172C23.919 39.4789 23.3412 41.2994 23.3594 43.2889C23.3679 44.2499 23.4844 45.2452 23.0377 46.1573C22.7112 46.8221 22.3689 47.4807 21.9974 48.1198C21.7061 48.6205 21.7449 49.0601 22.0957 49.4996C22.2754 49.7248 22.4296 49.9697 22.6141 50.19C23.2125 50.905 23.1567 51.9101 22.7039 52.7463C22.6031 52.9324 22.4842 53.1111 22.3555 53.2789C22.0095 53.7294 21.9549 54.2179 22.1613 54.7345C22.3264 55.1483 22.2596 55.4826 21.8554 55.6882C21.3115 55.9661 21.0129 56.4228 20.8053 56.9798C20.6997 57.2639 20.6682 57.5369 20.7276 57.8221C20.7981 58.1588 20.7628 58.4 20.4035 58.5836C20.0333 58.7722 19.8597 59.1578 19.8937 59.5753C19.9435 60.1837 19.7019 60.6857 19.4579 61.2133C19.1119 61.9626 18.6519 62.6506 18.329 63.4048C18.0267 64.1136 18.0109 64.9082 17.8058 65.6501C17.7378 65.8962 17.7099 66.1826 17.5642 66.3724C17.2668 66.7593 17.2631 67.0972 17.5375 67.4828C17.6674 67.6652 17.7548 67.8807 17.8616 68.0803C18.0582 68.45 18.0959 68.7989 17.7366 69.1013C17.6904 69.1392 17.6322 69.187 17.6212 69.2396C17.478 69.9105 17.1636 70.5667 17.2401 71.2572C17.3165 71.9453 17.5193 72.6198 17.6856 73.2956C17.7317 73.4829 17.688 73.6139 17.5836 73.7572C17.3955 74.013 17.2352 74.2922 17.0337 74.5358C16.1354 75.618 15.8004 76.8742 15.9205 78.2563C15.9655 78.7693 15.8331 79.2088 15.5855 79.6373C15.3925 79.9715 15.2966 80.3205 15.3488 80.722C15.3791 80.9534 15.3269 81.2117 15.2529 81.4382C14.9992 82.2181 14.9397 83.0126 15.0259 83.8194C15.0599 84.1316 14.9458 84.3483 14.7127 84.5221C14.5173 84.6666 14.2866 84.8086 14.2089 85.0314C13.9625 85.7354 13.3555 86.1724 12.9974 86.7883C12.8348 87.0674 12.7231 87.0588 12.5216 86.8091C11.9753 86.1333 11.724 85.411 12.0057 84.5429C12.1708 84.0337 12.1683 83.5244 11.826 83.0677C11.741 82.9551 11.6913 82.8192 11.7143 82.6821C11.8479 81.8875 11.4983 81.1983 11.2518 80.4882C10.8063 79.2039 10.2382 77.9515 9.91652 76.6379C9.23673 73.86 7.94027 71.2915 7.29447 68.5087C7.25441 68.3349 7.15851 68.2149 7.00798 68.1219C6.77734 67.9799 6.55519 67.8219 6.32941 67.6726C5.85598 67.3616 5.76129 67.0898 5.93367 66.5328C5.94217 66.5034 5.94095 66.4691 5.95552 66.4446C6.3197 65.8643 6.20195 65.3783 5.68603 64.9559C5.4566 64.7686 5.41776 64.525 5.45417 64.2214C5.58649 63.1036 5.317 61.9895 4.84479 61.0505C3.14288 57.6666 2.07342 54.0673 1.00761 50.4582C0.690773 49.3869 0.389723 48.3096 0.0461847 47.2469C-0.0509284 46.9445 0.0206925 46.7817 0.227058 46.5797C1.80636 45.031 3.31404 43.4113 4.53039 41.5529C5.58528 39.9417 6.69722 38.36 7.45471 36.5689C8.12721 34.9798 8.95753 33.4592 9.4261 31.7808C9.6616 30.9372 10.0743 30.1427 10.3086 29.2992C10.8597 27.3122 11.44 25.335 11.8321 23.3027C12.0057 22.4004 12.2181 21.5006 12.405 20.5983C12.6685 19.3337 12.9804 18.0702 13.0096 16.7713C13.0181 16.3856 13.3701 16.2179 13.392 15.8347C13.4272 15.2018 13.5728 14.5749 13.551 13.9346C13.5449 13.7473 13.5825 13.6004 13.7634 13.5343C13.9516 13.4657 14.124 13.3874 14.3315 13.5539C14.8754 13.9897 15.1339 13.9346 15.4896 13.3225C15.7336 12.9026 15.8841 12.441 15.9545 11.9575C15.9655 11.884 15.98 11.7787 15.9412 11.7371C15.5139 11.2755 15.8453 10.7871 15.9048 10.3231C16.0079 9.51382 16.3466 8.74743 16.3782 7.92227C16.3855 7.71782 16.5044 7.71047 16.6477 7.71047C16.8735 7.71047 17.0993 7.71047 17.3263 7.71047L17.325 7.71415Z" fill="#E62020"/>
</g>
<defs>
<clipPath id="clip0_1_14463">
<rect width="32" height="87" fill="white"/>
</clipPath>
</defs>
</svg>
