<svg width="489" height="1318" viewBox="0 0 489 1318" fill="none" xmlns="http://www.w3.org/2000/svg">
<path d="M264.747 116.864C269.57 116.27 274.375 116.883 279.142 117.012C285.282 117.179 291.2 113.859 297.655 114.175C300.605 114.323 303.647 113.822 306.559 113.192C312.588 111.875 316.317 113.878 319.062 119.59C323.459 128.715 325.926 128.549 335.739 126.787C342.973 125.488 348.928 123.559 353.213 117.513C353.473 117.142 353.992 116.549 354.196 116.623C363.712 119.794 366.625 110.966 372.227 106.923C375.195 104.771 375.046 101.711 375.362 98.9477C375.993 93.4392 376.679 88.0235 379.499 83.09C380.036 82.1442 380.537 80.7531 380.259 79.7887C377.477 69.9774 382.485 62.6884 387.494 55.1213C389.683 51.8014 390.703 51.0224 392.984 54.5649C394.097 56.3083 395.452 57.9033 396.509 59.6653C398.512 62.9666 400.238 63.5972 401.87 59.4242C402.612 57.5138 404.448 56.9203 406.099 56.1228C414.373 52.1167 422.813 48.4258 427.154 39.3379C428.527 36.4445 431.624 36.018 434.889 36.0551C449.006 36.2405 454.905 31.4554 457.65 18.046C458.318 14.7632 459.654 11.7586 462.492 9.99663C467.76 6.73237 473.214 3.76487 478.649 0.778812C481.635 -0.853317 482.915 0.278045 482.656 3.5794C482.303 8.23467 479.762 11.7771 476.775 15.0043C470.858 21.403 469.133 28.8774 470.505 37.3348C471.247 41.8417 472.268 46.4784 469.225 50.6515C466.795 53.9899 469.578 55.5664 471.526 57.4582C479.743 65.4519 480.838 73.0191 475.05 83.0715C472.935 86.7252 474.123 88.3759 477.888 89.5258C489.26 92.9941 492.32 102.342 485.123 111.504C483.62 113.396 482.971 114.787 484.752 116.864C485.976 118.274 488.314 119.739 486.496 122.057C485.012 123.949 482.544 123.708 480.745 122.947C474.531 120.314 475.403 123.912 475.31 128.085C475.087 138.211 477.165 148.078 478.018 158.075C478.519 163.862 479.076 169.463 483.157 174.1C485.29 176.529 485.809 179.46 484.307 182.446C476.887 197.191 467.927 211.027 459.041 224.9C455.257 230.798 449.228 229.815 444.35 232.207C443.144 232.801 440.788 232.931 440.695 233.561C439.341 241.759 430.623 241.499 426.356 246.303C420.791 252.59 411.683 250.624 405.116 254.872C401.647 257.116 396.676 257.394 397.195 263.663C397.325 265.351 394.431 267.576 392.558 269.06C385.898 274.327 385.193 276.998 389.478 284.677C391.538 288.386 387.642 292.132 390.183 295.897C393.393 300.645 386.492 301.332 386.455 303.038C386.362 307.044 380.686 311.18 386.121 315.131C389.534 317.616 389.683 320.25 387.29 323.699C385.898 325.721 384.229 327.817 387.308 330.84C389.794 333.307 385.639 336.311 385.045 339.371C383.524 347.328 379.665 354.932 382.578 363.39C383.079 364.836 383.097 366.543 382.967 368.101C381.762 382.567 383.858 396.867 385.119 411.204C385.472 415.173 385.917 418.956 383.913 422.591C383.802 422.795 383.654 422.999 383.635 423.222C382.225 439.84 371.559 454.158 371.726 471.166C371.763 473.966 371.726 476.711 373.989 478.826C374.49 479.289 375.269 480.161 375.121 480.476C371.225 489.193 380.482 497.113 376.642 505.811C376.085 507.054 376.011 508.556 375.343 509.725C370.242 518.46 370.576 522.893 377.031 530.405C377.458 530.905 378.256 531.87 378.219 531.926C373.451 536.507 379.814 541.44 377.514 546.633C375.288 551.641 378.348 557.428 379.294 562.825C379.851 565.959 379.684 568.537 378.33 571.393C365.512 598.082 356.682 625.662 356.96 655.8C357.09 670.36 358.871 685.438 352.044 699.256C347.054 709.327 341.823 719.305 336.147 728.987C331.695 736.572 332.288 743.231 337.649 749.889C340.395 753.302 342.751 757.011 345.57 760.349C354.716 771.181 353.862 786.408 346.943 799.075C345.403 801.895 343.585 804.602 341.619 807.143C336.332 813.969 335.498 821.369 338.651 829.196C341.174 835.464 340.154 840.528 333.976 843.644C325.666 847.854 321.103 854.772 317.931 863.211C316.317 867.514 315.834 871.649 316.743 875.971C317.819 881.071 317.281 884.725 311.791 887.507C306.133 890.363 303.48 896.206 303.999 902.53C304.76 911.748 301.069 919.352 297.34 927.346C292.053 938.697 285.023 949.12 280.088 960.545C275.469 971.284 275.228 983.32 272.093 994.56C271.054 998.288 270.628 1002.63 268.402 1005.5C263.857 1011.36 263.801 1016.48 267.994 1022.32C269.979 1025.09 271.314 1028.35 272.947 1031.38C275.952 1036.98 276.527 1042.26 271.036 1046.84C270.331 1047.42 269.441 1048.14 269.274 1048.94C267.085 1059.1 262.28 1069.04 263.449 1079.5C264.618 1089.93 267.715 1100.15 270.257 1110.39C270.962 1113.22 270.294 1115.21 268.699 1117.38C265.823 1121.25 263.375 1125.48 260.295 1129.17C246.568 1145.57 241.448 1164.6 243.285 1185.54C243.971 1193.31 241.949 1199.97 238.165 1206.46C235.216 1211.52 233.75 1216.81 234.548 1222.89C235.012 1226.4 234.214 1230.31 233.082 1233.74C229.205 1245.56 228.296 1257.59 229.613 1269.81C230.133 1274.54 228.389 1277.83 224.827 1280.46C221.841 1282.65 218.316 1284.8 217.129 1288.18C213.364 1298.84 204.088 1305.46 198.616 1314.79C196.13 1319.02 194.424 1318.89 191.345 1315.11C182.997 1304.87 179.157 1293.93 183.461 1280.78C185.984 1273.06 185.946 1265.34 180.715 1258.43C179.417 1256.72 178.656 1254.66 179.009 1252.58C181.049 1240.55 175.707 1230.11 171.941 1219.35C165.133 1199.89 156.452 1180.92 151.536 1161.02C141.148 1118.94 121.336 1080.02 111.468 1037.87C110.855 1035.23 109.39 1033.42 107.09 1032.01C103.565 1029.85 100.171 1027.46 96.7203 1025.2C89.4857 1020.49 88.0388 1016.37 90.6729 1007.93C90.8028 1007.49 90.7842 1006.97 91.0069 1006.6C96.5719 997.806 94.7725 990.443 86.8887 984.044C83.3827 981.206 82.7891 977.515 83.3456 972.916C85.3676 955.982 81.2495 939.105 74.0335 924.879C48.0262 873.615 31.6835 819.088 15.3965 764.411C10.5549 748.183 5.95449 731.861 0.704799 715.763C-0.779212 711.182 0.315246 708.715 3.46877 705.655C27.6025 682.193 50.6418 657.655 69.229 629.501C85.3491 605.093 102.341 581.131 113.916 553.996C124.193 529.922 136.881 506.887 144.042 481.459C147.64 468.681 153.947 456.644 157.528 443.865C165.949 413.763 174.816 383.81 180.808 353.022C183.461 339.353 186.707 325.721 189.564 312.052C193.589 292.893 198.356 273.752 198.802 254.074C198.932 248.232 204.311 245.691 204.645 239.886C205.183 230.297 207.409 220.801 207.075 211.101C206.982 208.263 207.557 206.038 210.321 205.036C213.197 203.997 215.831 202.81 219.003 205.333C227.313 211.936 231.264 211.101 236.7 201.827C240.428 195.466 242.728 188.474 243.804 181.148C243.971 180.035 244.194 178.44 243.6 177.809C237.071 170.817 242.135 163.417 243.044 156.387C244.62 144.128 249.796 132.518 250.278 120.017C250.39 116.92 252.207 116.808 254.396 116.808C257.847 116.808 261.297 116.808 264.766 116.808L264.747 116.864Z" fill="#115A05"/>
</svg>
